@startuml
[*] --> PacketDispatcher : PacketStream dom n EthernetHeader
PacketDispatcher --> ArpReceive : PacketStream dom n EthernetHeader
PacketDispatcher -left-> otherSinks : PacketStream dom n EthernetHeader
ArpReceive --> fanOut : Df dom ArpEntry
ArpReceive --> roundRobinCollect : Df dom ArpLite
roundRobinCollect --> ArpTransmit : Df dom ArpLite
fanOut --> ArpTable : Df dom ArpEntry
fanOut --> ArpManager : Df dom ArpEntry
ArpManager --> roundRobinCollect : Df dom ArpLite
ArpManager --> ArpTable : Df dom ArpLookup
ArpTransmit --> packetArbiter : PacketStream dom n EthernetHeader
otherSource -right-> packetArbiter : PacketStream dom n EthernetHeader
packetArbiter --> [*] : PacketStream dom n EthernetHeader
User --> ArpManager : Df dom ArpLookup
@enduml
